<svg xmlns="http://www.w3.org/2000/svg" xmlns:xlink="http://www.w3.org/1999/xlink" fill="none" version="1.1" width="11.957602500915527" height="11.9576416015625" viewBox="0 0 11.957602500915527 11.9576416015625"><defs><linearGradient x1="0" y1="0.5" x2="1" y2="0.5" id="master_svg0_1_07790"><stop offset="0%" stop-color="#6689FF" stop-opacity="1"/><stop offset="100%" stop-color="#429DD0" stop-opacity="1"/></linearGradient></defs><g><path d="M11.5771,0.46201C11.305,0.168885,10.8771,0.0586347,10.4685,0.0192597C10.0398,-0.0218653,9.52527,0.00525967,8.97227,0.0778846C7.86277,0.223135,6.52227,0.56001,5.2334,0.97476C3.94452,1.38951,2.68802,1.88913,1.7474,2.36688C1.27927,2.60488,0.872397,2.84638,0.577522,3.07738C0.435452,3.18474,0.3073,3.30937,0.196023,3.44839C0.0997725,3.57438,-0.00172748,3.75463,0.0000224972,3.96988C0.00352251,4.53688,0.389398,4.93763,0.800648,5.20626C1.22065,5.48101,1.76752,5.68751,2.3109,5.85026C2.85952,6.01388,3.4379,6.14076,3.93402,6.24401L4.11165,6.28076C4.41177,6.34201,4.5614,6.37351,4.70315,6.33151C4.84315,6.28863,4.95252,6.18013,5.16952,5.96401L7.31677,3.81676C7.54748,3.60893,7.90052,3.61813,8.12008,3.8377C8.33965,4.05726,8.34885,4.4103,8.14102,4.64101L6.13902,6.64388C5.91765,6.86526,5.80652,6.97551,5.7654,7.11901C5.7234,7.26251,5.75665,7.41476,5.8249,7.71926C6.08652,8.90051,6.31402,9.87613,6.54065,10.5333C6.6719,10.9165,6.82152,11.249,7.01052,11.4931C7.20652,11.7486,7.47427,11.942,7.8269,11.9569C8.04565,11.9674,8.2294,11.8668,8.35365,11.774C8.48577,11.676,8.61002,11.5448,8.72465,11.4013C8.95565,11.1125,9.19802,10.7135,9.43952,10.2515C9.92515,9.32401,10.4388,8.08063,10.8745,6.80138C11.3085,5.52213,11.6708,4.18863,11.8458,3.08001C11.9324,2.52701,11.9753,2.01338,11.9508,1.58376C11.9289,1.17513,11.8423,0.747259,11.5771,0.46201Z" fill="url(#master_svg0_1_07790)" fill-opacity="1"/></g></svg>