<?xml version="1.0" encoding="utf-8"?><svg xmlns="http://www.w3.org/2000/svg" preserveAspectRatio="xMidYMid" viewBox="0 0 585 708"><defs><linearGradient id="g" x2="1"><stop stop-color="#e8542b" offset="0"></stop><stop stop-color="#f79d84" offset="1"></stop></linearGradient></defs>
<path d="M664 354 C664 465 494 613 387 648 C281 682 81 645 15 555 C-50 465 -89 214 -23 123 C42 33 268 67 374 101 C480 135 664 242 664 354" fill="url(#g)" opacity="0.4"><animate attributeName="d" dur="10s" repeatCount="indefinite" keyTimes="0;0.33;0.67;1" calcmod="spline" keySplines="0.3 0.1 0.7 0.9;0.3 0.1 0.7 0.9;0.3 0.1 0.7 0.9" begin="-10s" values="M 671 354 C 671 465 500 633 394 667 C 288 701 78 648 12 558 C -54 468 -109 200 -43 110 C 23 20 268 69 374 103 C 480 137 671 243 671 354;M 665 354 C 665 462 476 569 373 602 C 270 635 56 660 -8 572 C -72 484 -31 253 33 165 C 97 77 274 61 377 94 C 480 127 665 246 665 354;M 650 354 C 650 466 482 574 375 609 C 268 644 89 641 23 550 C -43 459 -50 244 16 153 C 82 62 269 63 376 98 C 483 133 650 242 650 354;M 671 354 C 671 465 500 633 394 667 C 288 701 78 648 12 558 C -54 468 -109 200 -43 110 C 23 20 268 69 374 103 C 480 137 671 243 671 354"/></path>
<path d="M696 354 C696 457 470 565 371 597 C272 629 103 619 42 535 C-18 451 -58 227 2 143 C63 59 268 93 367 125 C465 157 696 250 696 354" fill="url(#g)" opacity="0.4"><animate attributeName="d" dur="10s" repeatCount="indefinite" keyTimes="0;0.33;0.67;1" calcmod="spline" keySplines="0.3 0.1 0.7 0.9;0.3 0.1 0.7 0.9;0.3 0.1 0.7 0.9" begin="-10s" values="M 712 354 C 712 460 478 581 377 614 C 276 647 95 629 32 543 C -31 457 -64 227 -1 141 C 62 55 266 93 367 126 C 468 159 712 248 712 354;M 750 354 C 750 473 516 657 403 694 C 290 731 32 690 -38 594 C -108 498 -112 207 -42 111 C 28 15 274 26 387 62 C 500 98 750 235 750 354;M 665 354 C 665 453 454 532 360 562 C 266 592 122 600 64 520 C 6 440 -48 229 10 149 C 68 69 273 93 367 123 C 461 153 665 255 665 354;M 712 354 C 712 460 478 581 377 614 C 276 647 95 629 32 543 C -31 457 -64 227 -1 141 C 62 55 266 93 367 126 C 468 159 712 248 712 354"/></path>
</svg>
